<svg xmlns="http://www.w3.org/2000/svg" xmlns:xlink="http://www.w3.org/1999/xlink" width="576" zoomAndPan="magnify" viewBox="0 0 432 215.999996" height="288" preserveAspectRatio="xMidYMid meet" version="1.0"><path fill="#e04420" d="M 45.277344 80.238281 L 9.164062 169.171875 L 30.527344 169.171875 L 36.734375 153.949219 L 75.316406 153.949219 L 81.523438 169.171875 L 102.886719 169.171875 L 66.773438 80.238281 Z M 42.824219 139.082031 L 56.035156 106.726562 L 69.226562 139.082031 Z M 42.824219 139.082031 " fill-opacity="1" fill-rule="nonzero"/><path fill="#e04420" d="M 134.667969 154.8125 C 131.046875 154.8125 128.324219 151.699219 128.324219 147.300781 L 128.324219 117.515625 L 142.820312 117.515625 L 142.820312 102.292969 L 128.257812 102.292969 L 128.257812 83.875 L 110.074219 83.875 L 110.074219 102.242188 L 100.890625 102.242188 L 100.890625 117.464844 L 110.074219 117.464844 L 110.074219 150.226562 C 110.074219 162.253906 118.363281 170.675781 130.269531 170.675781 C 133.066406 170.609375 135.773438 170.078125 138.386719 169.074219 C 141 168.074219 143.367188 166.664062 145.492188 164.84375 L 141.011719 152.613281 C 140.125 153.359375 139.136719 153.925781 138.042969 154.304688 C 136.949219 154.683594 135.824219 154.851562 134.667969 154.8125 Z M 134.667969 154.8125 " fill-opacity="1" fill-rule="nonzero"/><path fill="#e04420" d="M 183.855469 100.6875 C 163.792969 100.6875 147.351562 116.367188 147.351562 135.648438 C 147.351562 154.929688 163.792969 170.726562 183.855469 170.726562 C 203.914062 170.726562 220.371094 154.929688 220.371094 135.648438 C 220.371094 116.367188 203.929688 100.6875 183.855469 100.6875 Z M 183.855469 154.8125 C 183.222656 154.835938 182.59375 154.828125 181.964844 154.789062 C 181.332031 154.753906 180.707031 154.683594 180.085938 154.582031 C 179.460938 154.480469 178.84375 154.351562 178.234375 154.191406 C 177.625 154.027344 177.023438 153.835938 176.433594 153.617188 C 175.84375 153.394531 175.265625 153.144531 174.699219 152.867188 C 174.132812 152.589844 173.582031 152.285156 173.042969 151.949219 C 172.507812 151.617188 171.992188 151.257812 171.488281 150.875 C 170.988281 150.492188 170.507812 150.082031 170.050781 149.652344 C 169.589844 149.21875 169.152344 148.765625 168.734375 148.292969 C 168.320312 147.816406 167.929688 147.320312 167.5625 146.808594 C 167.199219 146.292969 166.859375 145.761719 166.542969 145.214844 C 166.230469 144.667969 165.945312 144.105469 165.6875 143.53125 C 165.429688 142.957031 165.199219 142.367188 165 141.769531 C 164.800781 141.171875 164.628906 140.566406 164.488281 139.949219 C 164.347656 139.335938 164.242188 138.714844 164.160156 138.085938 C 164.082031 137.460938 164.035156 136.832031 164.019531 136.203125 C 164.003906 135.570312 164.019531 134.941406 164.066406 134.3125 C 164.113281 133.683594 164.1875 133.058594 164.296875 132.4375 C 164.40625 131.816406 164.542969 131.199219 164.710938 130.59375 C 164.882812 129.984375 165.082031 129.386719 165.308594 128.796875 C 165.535156 128.210938 165.792969 127.632812 166.078125 127.070312 C 166.363281 126.507812 166.675781 125.960938 167.015625 125.429688 C 167.355469 124.898438 167.71875 124.382812 168.109375 123.886719 C 168.5 123.394531 168.914062 122.917969 169.351562 122.460938 C 169.789062 122.007812 170.25 121.574219 170.730469 121.167969 C 171.207031 120.757812 171.707031 120.375 172.226562 120.011719 C 172.746094 119.652344 173.28125 119.320312 173.832031 119.011719 C 174.382812 118.707031 174.945312 118.425781 175.527344 118.175781 C 176.105469 117.925781 176.695312 117.703125 177.296875 117.511719 C 177.894531 117.320312 178.503906 117.15625 179.121094 117.023438 C 179.738281 116.890625 180.359375 116.789062 180.988281 116.71875 C 181.613281 116.648438 182.242188 116.609375 182.875 116.601562 C 183.507812 116.59375 184.136719 116.617188 184.765625 116.671875 C 185.394531 116.722656 186.015625 116.808594 186.636719 116.925781 C 187.257812 117.042969 187.871094 117.1875 188.476562 117.363281 C 189.082031 117.539062 189.675781 117.746094 190.261719 117.980469 C 190.847656 118.21875 191.421875 118.480469 191.980469 118.773438 C 192.539062 119.066406 193.082031 119.386719 193.609375 119.730469 C 194.136719 120.078125 194.644531 120.449219 195.136719 120.84375 C 195.628906 121.242188 196.097656 121.660156 196.546875 122.105469 C 196.996094 122.546875 197.421875 123.011719 197.824219 123.496094 C 198.230469 123.980469 198.609375 124.484375 198.960938 125.007812 C 199.3125 125.53125 199.640625 126.070312 199.941406 126.625 C 200.242188 127.179688 200.511719 127.75 200.757812 128.332031 C 201 128.914062 201.214844 129.503906 201.398438 130.109375 C 201.585938 130.710938 201.738281 131.324219 201.863281 131.941406 C 201.988281 132.558594 202.082031 133.183594 202.144531 133.8125 C 202.207031 134.4375 202.238281 135.066406 202.238281 135.699219 C 202.246094 136.3125 202.226562 136.925781 202.171875 137.535156 C 202.121094 138.144531 202.039062 138.753906 201.929688 139.355469 C 201.820312 139.957031 201.679688 140.554688 201.511719 141.144531 C 201.339844 141.734375 201.144531 142.3125 200.917969 142.882812 C 200.691406 143.453125 200.441406 144.011719 200.160156 144.558594 C 199.882812 145.101562 199.574219 145.632812 199.242188 146.148438 C 198.914062 146.664062 198.554688 147.164062 198.175781 147.644531 C 197.796875 148.125 197.394531 148.585938 196.96875 149.027344 C 196.542969 149.46875 196.097656 149.890625 195.632812 150.289062 C 195.167969 150.6875 194.683594 151.0625 194.179688 151.414062 C 193.675781 151.765625 193.160156 152.089844 192.625 152.390625 C 192.089844 152.691406 191.542969 152.964844 190.980469 153.214844 C 190.421875 153.460938 189.847656 153.679688 189.265625 153.871094 C 188.683594 154.0625 188.09375 154.226562 187.496094 154.359375 C 186.898438 154.496094 186.292969 154.601562 185.6875 154.675781 C 185.078125 154.75 184.46875 154.796875 183.855469 154.8125 Z M 183.855469 154.8125 " fill-opacity="1" fill-rule="nonzero"/><path fill="#e04420" d="M 305.855469 100.6875 C 295.875 100.6875 287.859375 105.101562 283.867188 112.222656 C 283.328125 111.332031 282.734375 110.480469 282.085938 109.664062 C 281.433594 108.851562 280.734375 108.085938 279.984375 107.363281 C 279.234375 106.640625 278.441406 105.972656 277.601562 105.351562 C 276.765625 104.734375 275.890625 104.171875 274.980469 103.667969 C 274.070312 103.164062 273.128906 102.722656 272.160156 102.34375 C 271.191406 101.960938 270.203125 101.644531 269.191406 101.394531 C 268.179688 101.140625 267.160156 100.957031 266.125 100.839844 C 265.089844 100.71875 264.050781 100.667969 263.011719 100.6875 C 254.742188 100.6875 248.007812 104.710938 244.761719 111.054688 L 244.761719 102.242188 L 225.867188 102.242188 L 225.867188 169.035156 L 244.761719 169.035156 L 244.761719 128.78125 C 244.761719 121.660156 250.074219 116.621094 257.71875 116.621094 C 264.703125 116.621094 269.558594 122.050781 269.558594 129.8125 L 269.558594 169.035156 L 287.808594 169.035156 L 287.808594 128.78125 C 287.808594 121.660156 293.117188 116.621094 300.746094 116.621094 C 307.613281 116.621094 312.585938 122.050781 312.585938 129.8125 L 312.585938 169.035156 L 330.703125 169.035156 L 330.703125 126.582031 C 330.582031 111.445312 319.84375 100.6875 305.855469 100.6875 Z M 305.855469 100.6875 " fill-opacity="1" fill-rule="nonzero"/><path fill="#e04420" d="M 406.289062 56.980469 C 404.144531 55.976562 401.949219 55.097656 399.707031 54.339844 C 397.460938 53.582031 395.183594 52.957031 392.867188 52.453125 C 390.554688 51.953125 388.21875 51.585938 385.859375 51.347656 C 383.503906 51.109375 381.140625 51.003906 378.773438 51.03125 C 376.40625 51.058594 374.046875 51.21875 371.695312 51.511719 C 369.347656 51.804688 367.019531 52.230469 364.71875 52.785156 C 362.414062 53.339844 360.152344 54.019531 357.925781 54.828125 C 355.699219 55.640625 353.527344 56.570312 351.40625 57.625 L 359.523438 68.296875 C 362.597656 66.957031 365.773438 65.9375 369.054688 65.238281 C 372.332031 64.539062 375.648438 64.171875 379.003906 64.140625 C 382.355469 64.105469 385.679688 64.40625 388.972656 65.039062 C 392.265625 65.675781 395.460938 66.628906 398.5625 67.90625 Z M 406.289062 56.980469 " fill-opacity="0.6" fill-rule="nonzero"/><path fill="#e04420" d="M 379.5 39.289062 C 385.328125 39.277344 391.078125 39.957031 396.746094 41.324219 C 402.414062 42.691406 407.839844 44.707031 413.023438 47.375 L 420.667969 36.582031 C 417.429688 34.835938 414.097656 33.300781 410.667969 31.980469 C 407.234375 30.65625 403.734375 29.558594 400.160156 28.679688 C 396.589844 27.804688 392.976562 27.15625 389.324219 26.742188 C 385.671875 26.324219 382.003906 26.140625 378.328125 26.191406 C 374.652344 26.238281 370.992188 26.519531 367.351562 27.035156 C 363.710938 27.550781 360.117188 28.292969 356.570312 29.265625 C 353.023438 30.238281 349.550781 31.433594 346.15625 32.847656 C 342.761719 34.261719 339.472656 35.882812 336.285156 37.714844 L 344.316406 48.253906 C 349.707031 45.289062 355.378906 43.050781 361.335938 41.53125 C 367.296875 40.011719 373.351562 39.265625 379.5 39.289062 Z M 379.5 39.289062 " fill-opacity="0.3" fill-rule="nonzero"/><path fill="#e04420" d="M 366.527344 76.769531 L 374.984375 88.222656 L 379.652344 94.597656 L 384.234375 88.304688 L 392.539062 76.957031 C 388.234375 75.496094 383.808594 74.761719 379.261719 74.757812 C 374.910156 74.753906 370.664062 75.425781 366.527344 76.769531 Z M 366.527344 76.769531 " fill-opacity="1" fill-rule="nonzero"/><path fill="#e04420" d="M 399.441406 136.613281 L 390.613281 124.503906 L 405.242188 104.609375 L 413.765625 93.074219 L 423.253906 80.222656 L 400.960938 80.222656 L 400.609375 80.660156 L 392.828125 91.332031 L 379.632812 109.382812 L 366.222656 91.0625 L 358.390625 80.355469 L 358.273438 80.222656 L 335.757812 80.222656 L 344.894531 92.820312 L 353.316406 104.390625 L 368.234375 124.890625 L 359.40625 136.917969 L 351.574219 147.574219 L 335.757812 169.171875 L 357.867188 169.171875 L 367.304688 156.367188 L 375.878906 144.78125 L 379.363281 140.0625 L 382.78125 144.78125 L 391.21875 156.367188 L 400.574219 169.171875 L 423.253906 169.171875 L 407.253906 147.269531 Z M 399.441406 136.613281 " fill-opacity="1" fill-rule="nonzero"/></svg>